<?xml version="1.0" encoding="UTF-8"?>
<!DOCTYPE svg PUBLIC "-//W3C//DTD SVG 1.1//EN" "http://www.w3.org/Graphics/SVG/1.1/DTD/svg11.dtd">
<!-- Creator: CorelDRAW 2020 (64-Bit) -->
<svg xmlns="http://www.w3.org/2000/svg" xml:space="preserve" width="122mm" height="122mm" version="1.1" style="shape-rendering:geometricPrecision; text-rendering:geometricPrecision; image-rendering:optimizeQuality; fill-rule:evenodd; clip-rule:evenodd"
viewBox="0 0 12200 12200"
 xmlns:xlink="http://www.w3.org/1999/xlink"
 xmlns:xodm="http://www.corel.com/coreldraw/odm/2003">
 <defs>
  <style type="text/css">
   <![CDATA[
    .str0 {stroke:#373435;stroke-width:20;stroke-miterlimit:22.9256}
    .fil0 {fill:#FEFEFE}
   ]]>
  </style>
 </defs>
 <g id="Capa_x0020_1">
  <metadata id="CorelCorpID_0Corel-Layer"/>
  <g id="_2797688541264">
   <path class="fil0 str0" d="M6970.53 6104.47l0.33 -6037.66c-285.63,-41.06 -578,-62.34 -875.33,-62.34 -3368.93,0 -6100,2731.08 -6100,6100 0,3368.92 2731.07,6100 6100,6100 3368.93,0 6100,-2731.08 6100,-6100 0,-2763.6 -1837.83,-5097.98 -4358.89,-5847.91l-1.07 946.82c2016.1,714.85 3459.96,2639.09 3459.96,4901.09 0,2872.32 -2328.12,5200 -5200,5200 -2871.88,0 -5200,-2327.68 -5200,-5200 0,-2872.32 2328.12,-5200 5200,-5200l0 5200 -875 0c0,483.25 391.75,875 875,875 483.25,0 875,-391.75 875,-875z"/>
   <path class="fil0 str0" d="M3646.65 5229.12l991.48 -0.27c-154,255.76 -242.6,555.36 -242.6,875.62 0,938.71 761.12,1700 1700,1700 938.88,0 1700,-761.29 1699.26,-1677.21l0.25 -4031c1558.39,664.5 2650.49,2207.75 2650.49,4008.21 0,2404.35 -1947.56,4350 -4350,4350 -2402.44,0 -4350,-1945.65 -4350,-4350 0,-2120.77 1515.25,-3884.67 3521.14,-4271.19l0.29 868.04c-1532.81,373.6 -2671.43,1755.33 -2671.43,3403.15 0,1933.1 1567,3500 3500,3500 1933,0 3500,-1566.9 3500,-3500 0,-900.42 -340,-1721.4 -899.29,-2342.37l-0.71 2342.37c0,1435.29 -1164.06,2600 -2600,2600 -1435.94,0 -2600,-1164.71 -2600,-2600 0,-307.04 53.27,-601.7 151.12,-875.35z"/>
  </g>
 </g>
</svg>
